<?xml version="1.0" encoding="UTF-8"?>
<svg id="Calque_2" data-name="Calque 2" xmlns="http://www.w3.org/2000/svg" xmlns:xlink="http://www.w3.org/1999/xlink" viewBox="0 0 261 144">
  <defs>
    <style>
      .cls-1 {
        fill: url(#Dégradé_sans_nom_486);
      }

      .cls-1, .cls-2, .cls-3, .cls-4 {
        stroke-width: 0px;
      }

      .cls-2 {
        fill: none;
      }

      .cls-5 {
        filter: url(#drop-shadow-1);
      }

      .cls-3 {
        fill: #e8e9e9;
      }

      .cls-4 {
        fill: url(#Dégradé_sans_nom_486-2);
      }
    </style>
    <filter id="drop-shadow-1" filterUnits="userSpaceOnUse">
      <feOffset dx="2.83" dy="2.83"/>
      <feGaussianBlur result="blur" stdDeviation="2.83"/>
      <feFlood flood-color="#1d1d1b" flood-opacity=".75"/>
      <feComposite in2="blur" operator="in"/>
      <feComposite in="SourceGraphic"/>
    </filter>
    <linearGradient id="Dégradé_sans_nom_486" data-name="Dégradé sans nom 486" x1="247.45" y1="67.72" x2="132.07" y2="68.06" gradientUnits="userSpaceOnUse">
      <stop offset="0" stop-color="#983e90"/>
      <stop offset=".17" stop-color="#8f3f90"/>
      <stop offset=".45" stop-color="#794293"/>
      <stop offset=".79" stop-color="#544897"/>
      <stop offset="1" stop-color="#3a4c9b"/>
    </linearGradient>
    <linearGradient id="Dégradé_sans_nom_486-2" data-name="Dégradé sans nom 486" x1="4.62" y1="68.13" x2="114.97" y2="67.63" xlink:href="#Dégradé_sans_nom_486"/>
  </defs>
  <g id="Calque_1-2" data-name="Calque 1">
    <g class="cls-5">
      <g>
        <path class="cls-1" d="M164.45,130.95c-.91,0-1.82,0-2.75-.02-.94,0-1.9-.02-2.86-.02-.76,0-1.53,0-2.3.02h-1.76c-1.42,0-2.87,0-4.09-.01-1.66-.01-2.82-.03-3.7-.22-1.65-.38-2.31-1.36-2.59-2.11-.08-.22-.13-.45-.13-.69-.22-6-.17-29.92-.12-53.05.03-13.39.05-26.09.03-35.06h-10.26c-2.3,0-4.17-1.98-4.17-4.4v-5.44c0-1.24,1.01-2.25,2.25-2.25,2.73,0,4.96-2.4,4.96-5.35s-2.22-5.35-4.96-5.35c-1.24,0-2.25-1.01-2.25-2.25v-5.44c0-2.43,1.87-4.4,4.17-4.4h108.89c3.7,0,6.72,3.16,6.72,7.04v3.36c.06,1.27.06,2.86,0,4.76v12.79c0,3.83-2.98,6.94-6.64,6.94h-11.78c-.08,9.74-.02,23.94.03,37.68.09,23.1.17,44.92-.28,50.69-.03.41-.17.8-.41,1.13-1,1.41-2.75,1.56-5.11,1.62-1.45.02-3.45.03-5.44.03-1.62,0-3.22,0-4.49-.01-.08,0-.15,0-.22-.01-.25-.03-.55-.02-.86-.03-1.38,0-5.03-.03-5.28-3.44,0-.05,0-.09,0-.14-.06-4.75-.05-16.93-.04-31.03,0-10.01.02-21.17,0-31.77v-24.73h-22.38c5.08,6.55,5.63,16.33,5.33,26.16v25.46c0,1.32.01,2.67.03,4.05.15,13.21.33,29.66-15.29,34.11-3.75,1.14-7.61,1.38-12.22,1.38ZM162.32,115.55c.93.11,1.85.17,2.71.17,6.05,0,6.99-2.78,7.31-3.69.02-.05.03-.09.05-.14.94-2.24.93-4.49.93-7.1v-36.97l.02-2.02c.08-6.32.15-11.78-2.22-14.17-1.18-1.2-3.11-1.78-5.89-1.78-.88,0-1.85.06-2.9.18-.02,1.4-.02,3.53-.01,6.15,0,1.83,0,3.9,0,6.16v36.14c0,7.67,0,14.04,0,17.02,0,.01,0,.03,0,.04Z"/>
        <path class="cls-3" d="M242.79,7.15c2.46,0,4.47,2.14,4.47,4.79v3.36c.07,1.52.05,3.17,0,4.69v12.86c0,2.59-1.97,4.69-4.39,4.69h-14.02v.85c-.24,24.55.47,80.19-.26,89.6-.35.49-1.34.63-3.34.68-1.41.02-3.4.03-5.37.03-1.61,0-3.21,0-4.47-.02-1.4-.15-4.01.33-4.14-1.39-.1-8.05,0-37.05-.03-62.77v-26.98h-30.38c8.58,5.51,9.15,17.63,8.83,28.34v25.53c-.03,13.61,1.84,31.59-13.63,35.99-3.68,1.12-7.52,1.29-11.6,1.29-1.83,0-3.7-.03-5.63-.03-.77,0-1.55,0-2.34.02-.55,0-1.13,0-1.72,0-1.41,0-2.86,0-4.08-.02-1.52-.01-2.59-.03-3.24-.17-.56-.13-.82-.34-.95-.68-.35-9.66,0-66.75-.11-90.28h-12.5c-1.06,0-1.92-.96-1.92-2.15v-5.44c3.98,0,7.21-3.4,7.21-7.6s-3.23-7.6-7.21-7.6v-5.44c0-1.19.86-2.15,1.92-2.15h108.89M165.03,117.97c3.75,0,8-1,9.44-5.21,1.16-2.79,1.1-5.46,1.1-8.37v-36.57c.11-11.59.91-20.22-10.34-20.22-1.12,0-2.36.09-3.74.26l-.09.02c-.87.21-1.3.76-1.32,1.67-.05,2.18,0,6.85-.02,12.78v22.14c0,13.34,0,26.35,0,31.03-.04,1.24.37,2.04,1.7,2.24.97.13,2.09.22,3.26.22M242.79,2.65h-108.89c-3.54,0-6.42,2.98-6.42,6.65v5.44c0,2.49,2.01,4.5,4.5,4.5,1.49,0,2.71,1.39,2.71,3.1s-1.21,3.1-2.71,3.1c-2.49,0-4.5,2.01-4.5,4.5v5.44c0,3.67,2.88,6.65,6.42,6.65h8.01c.02,8.78,0,20.51-.03,32.82-.04,23.15-.09,47.08.13,53.12.02.47.11.93.27,1.37.38,1.05,1.43,2.9,4.16,3.53.02,0,.04,0,.06.01,1.09.24,2.36.26,4.16.28,1.23,0,2.69.02,4.11.02.59,0,1.18,0,1.74,0,.02,0,.04,0,.06,0,.76-.01,1.51-.02,2.25-.02.96,0,1.91,0,2.85.02.94,0,1.87.02,2.78.02,4.8,0,8.83-.25,12.87-1.48,17.23-4.94,17.03-23.05,16.88-36.29-.02-1.37-.03-2.71-.03-4.02v-25.47c.18-5.75.47-15.87-3.58-23.91h16.14v22.48c.01,10.59,0,21.73,0,31.73-.01,14.13-.02,26.33.04,31.1,0,.09,0,.18.01.28.18,2.46,1.82,4.44,4.27,5.16,1.19.35,2.37.36,3.24.36.21,0,.53,0,.63.01.15.02.29.02.44.03,1.27,0,2.88.02,4.5.02,2.17,0,4.09,0,5.43-.03.02,0,.04,0,.06,0,2.17-.06,5.15-.14,6.88-2.57.48-.67.76-1.45.82-2.26.46-5.86.38-27.72.29-50.87-.05-12.73-.1-25.84-.04-35.43h9.55c4.9,0,8.89-4.12,8.89-9.19v-12.79c.06-1.88.06-3.47,0-4.86v-3.27c0-5.12-4.02-9.29-8.97-9.29h0ZM164.57,52.12c.23,0,.45-.01.66-.01h0c2.12,0,3.57.37,4.29,1.11,1.71,1.73,1.64,6.99,1.57,12.57,0,.66-.02,1.33-.02,2.01v36.61s0,.4,0,.4c0,2.46,0,4.41-.76,6.23-.04.09-.07.18-.11.28-.18.54-.74,2.17-5.18,2.17-.15,0-.3,0-.46,0,0-3.4,0-8.76,0-14.98v-14.01s0-22.14,0-22.14c0-2.24,0-4.3,0-6.12,0-1.56,0-2.95,0-4.11h0Z"/>
      </g>
      <g>
        <path class="cls-4" d="M86.97,130.95c-1.58,0-3.23-.12-4.93-.37-9.52-1.37-16.05-7.93-17.91-18.01,0-.04-.01-.08-.02-.13-.07-.53-.16-1.11-.26-1.72-.66-4.12-1.65-10.36,3.29-12.71.05-.02.1-.05.16-.07,1.54-.6,3.43-.94,5.17-.94,3.57,0,6.28,1.35,7.63,3.8.02.04.04.08.06.12.62,1.32.9,2.87,1.2,4.51.38,2.1.76,4.28,1.83,5.38.03.03.06.07.09.1.73.85,1.8,1.33,2.96,1.33.96,0,1.86-.34,2.54-.96,1.39-1.25,2.16-3.59,2.12-6.42-.18-7.13-6.16-13.11-11.95-18.89-3.26-3.25-6.62-6.61-8.9-10.17-3.53-5.05-5.52-10.26-6.09-15.93-.75-7.95.52-14.9,3.6-20.11H27.84c0,3.9,0,8.26,0,12.05v6.42c.02.29.02.59.02.9,0,.43,0,1.1.09,1.43.44.13,1.13.14,1.75.16.33,0,.66.01.97.03.6,0,1.35.01,2.12.01.97,0,2,0,3.04-.01,1.09,0,2.2-.01,3.29-.01,2.65,0,4.49.05,5.98.15,3.63.31,4.7,2.6,5.02,3.94.48,1.97.47,4.19.45,6.33,0,.62,0,1.24,0,1.84,0,4.09-.02,9.14-6.94,9.14-.2,0-.4,0-.61-.01-.84.02-1.71.02-2.61.02-1.06,0-2.15,0-3.25-.02-1.1,0-2.21-.02-3.3-.02-2.56,0-4.38.05-5.89.16-.03,0-.07,0-.09,0-.02.12-.03.3-.03.56-.02,1.78-.02,4.44-.02,7.66,0,1.94,0,4.08,0,6.32v10.96c0,6.99,0,13.56,0,17.09,0,.25-.01.41-.02.56-.02,1.11-.06,2.78-1.34,4.05-.06.06-.13.12-.2.17-1.4,1.09-3.11,1.16-4.35,1.21-.19,0-.38.01-.57.03-1.37.03-3,.04-4.62.04-1.37,0-2.74,0-3.9-.01h-.52c-.07,0-.13,0-.2-.01-.15-.01-.33-.01-.53-.01h-.42c-.25,0-.5,0-.76,0-2.56-.08-4.6-2.21-4.64-4.84-.12-10.27-.09-42.3-.06-70.56v-17.74c0-.07,0-.14,0-.21V11.94c0-3.88,3.05-7.04,6.79-7.04h108.81c2.3,0,4.17,1.98,4.17,4.4v3.47c4.13,1.05,7.21,4.94,7.21,9.56s-3.08,8.51-7.21,9.56v3.47c0,2.43-1.87,4.4-4.17,4.4h-15.29c1.09,1.82,1.9,3.83,2.42,6.02.08.38.16.73.25,1.09.76,3.32,1.7,7.44-.29,10.76-.05.08-.11.17-.17.24-1.47,1.85-4.11,2.92-7.24,2.92-2.63,0-5.06-.77-6.66-2.12-.03-.03-.06-.05-.09-.08-1.57-1.47-2.17-3.45-2.69-5.19-.28-.94-.55-1.82-.94-2.63-.81-1.84-2.35-2.47-3.53-2.47-1.01,0-1.94.43-2.63,1.22-3.11,4.18-1.8,10.24.89,14.4,2.4,3.56,5.58,6.87,8.96,10.36,6.64,6.89,13.51,14.01,15.02,24.12,1.57,10.47-.35,19.48-5.41,25.36-4.03,4.68-9.9,7.16-16.96,7.16Z"/>
        <path class="cls-3" d="M121.34,7.15c1.06,0,1.92.96,1.92,2.15v5.44c3.98,0,7.21,3.4,7.21,7.6s-3.23,7.6-7.21,7.6v5.44c0,1.19-.86,2.15-1.92,2.15h-19.87c2.26,2.27,3.96,5.21,4.81,8.79.68,3.13,1.93,7.31.21,10.17-1.11,1.4-3.28,2.07-5.48,2.07-1.98,0-3.97-.54-5.21-1.59-1.81-1.69-1.9-4.6-3.15-7.16-1.05-2.42-3.3-3.73-5.56-3.73-1.6,0-3.2.66-4.38,2.06-3.75,4.96-2.48,12.02.76,17.03,7.38,10.96,21.51,19.28,23.64,33.6,2.54,16.89-4.42,29.94-20.14,29.94-1.46,0-2.99-.11-4.6-.34-8.83-1.27-14.4-7.4-16.02-16.19-.47-3.77-2.24-10.21,1.77-12.12,1.19-.46,2.78-.79,4.36-.79,2.29,0,4.58.69,5.67,2.64,1.29,2.71.93,7.9,3.45,10.49,1.2,1.4,2.93,2.12,4.66,2.12,1.46,0,2.92-.51,4.05-1.54,2.15-1.94,2.9-5.2,2.86-8.12-.31-12.39-15.11-20.67-21.22-30.27-3.16-4.5-5.17-9.4-5.73-14.9-.84-8.94.97-17.04,5.86-22.14H25.59c0,6.84,0,15.97,0,20.77.07,1.39-.17,3.1.84,4.03l.05.04c1.15.73,2.7.56,4.06.64.7.01,1.46.02,2.25.02,1.98,0,4.19-.03,6.31-.03s4.17.03,5.84.14c1.4.12,2.62.67,2.98,2.21.55,2.26.35,5.14.39,7.68,0,4.61-.19,6.86-4.69,6.86-.19,0-.38,0-.59-.01-.84.02-1.73.02-2.64.02-2.11,0-4.36-.03-6.53-.03s-4.24.03-6.06.16c-1.7.08-2.26,1.18-2.21,2.88-.04,2.7,0,7.93-.02,13.91,0,10.25,0,22.67,0,28.05-.05,1.07.07,2.27-.69,3.02-.99.77-2.43.68-3.67.76-1.26.03-2.86.04-4.45.04s-3.18,0-4.44-.01c-.24-.02-.53-.02-.85-.02-.1,0-.21,0-.32,0-.22,0-.45,0-.68,0-1.36-.04-2.44-1.19-2.46-2.63-.15-12.58-.07-58.55-.05-88.48h0V11.94c0-2.65,2.03-4.79,4.54-4.79h108.81M121.34,2.65H12.52C7.54,2.65,3.48,6.82,3.48,11.94v25.6c0,.1,0,.2,0,.29v17.58c-.04,28.3-.07,60.37.05,70.66.05,3.85,3.05,6.95,6.82,7.07.28,0,.55.01.82.01h.17s.15,0,.15,0c.06,0,.12,0,.18,0,.1,0,.19,0,.27,0,.13.01.25.02.38.02h.53c1.17,0,2.55.01,3.94.01,1.92,0,3.41-.01,4.54-.04.06,0,.12,0,.18,0,.17-.01.34-.02.52-.02,1.46-.06,3.67-.14,5.64-1.68.14-.11.27-.23.4-.35,1.93-1.91,1.98-4.31,2-5.6,0-.14,0-.27.01-.41,0-.06,0-.13,0-.19,0-3.53,0-10.1,0-17.09v-10.97c0-2.24,0-4.38,0-6.32,0-2.35,0-4.47,0-6.08,1.06-.04,2.29-.05,3.78-.05,1.08,0,2.18,0,3.28.02,1.1,0,2.19.02,3.26.02.9,0,1.77,0,2.6-.02.21,0,.42.01.62.01,9.17,0,9.18-7.38,9.19-11.35,0-.03,0-.05,0-.08,0-.58,0-1.18,0-1.79.02-2.18.04-4.64-.52-6.9-.77-3.21-3.38-5.32-6.97-5.63-.03,0-.05,0-.08,0-1.54-.1-3.44-.15-6.14-.15-1.09,0-2.2,0-3.3.01-1.04,0-2.05.01-3.02.01-.74,0-1.44,0-2.1-.02-.2,0-.4-.02-.6-.02,0-.1,0-.19,0-.29,0-1.7,0-3.91,0-6.37,0-3.07,0-6.52,0-9.8h33.87c-2.09,5.08-2.87,11.24-2.22,18.06.61,6.07,2.72,11.62,6.46,16.98,2.4,3.74,5.85,7.18,9.18,10.51,5.72,5.71,11.12,11.11,11.29,17.35.02,2.08-.52,3.91-1.37,4.69-.37.33-.81.38-1.04.38s-.83-.05-1.25-.55c-.06-.07-.12-.14-.19-.2-.59-.61-.98-2.77-1.23-4.21-.31-1.72-.62-3.49-1.38-5.08-.04-.08-.08-.17-.13-.25-1.75-3.16-5.25-4.96-9.6-4.97-2.04,0-4.17.39-5.98,1.09-.11.04-.21.09-.31.13-6.47,3.08-5.22,10.9-4.55,15.1.09.59.18,1.14.25,1.65.01.09.02.17.04.26,2.02,10.92,9.43,18.33,19.81,19.83,1.8.26,3.56.39,5.25.39,7.73,0,14.18-2.75,18.66-7.94,5.49-6.38,7.6-16.03,5.93-27.16-1.61-10.82-9.05-18.54-15.62-25.35-3.29-3.41-6.4-6.63-8.71-10.06-2.16-3.37-3.38-8.43-1.01-11.72.25-.26.54-.39.88-.39.47,0,1.1.27,1.43,1.03.03.06.05.12.08.18.31.64.55,1.44.81,2.29.58,1.92,1.3,4.31,3.31,6.19.06.05.11.1.17.15,2,1.68,4.95,2.65,8.11,2.65,3.82,0,7.1-1.37,9-3.77.12-.15.23-.31.33-.48,2.46-4.09,1.36-8.91.56-12.42-.08-.35-.16-.69-.23-1.02,0-.03-.01-.06-.02-.09-.27-1.12-.6-2.21-1.01-3.25h11.69c3.54,0,6.42-2.98,6.42-6.65v-1.87c4.23-1.83,7.21-6.14,7.21-11.17s-2.98-9.34-7.21-11.17v-1.87c0-3.67-2.88-6.65-6.42-6.65h0Z"/>
      </g>
    </g>
    <rect class="cls-2" width="261" height="144"/>
  </g>
</svg>